<?xml version="1.0" standalone="no"?>
<!DOCTYPE svg PUBLIC "-//W3C//DTD SVG 20010904//EN"
 "http://www.w3.org/TR/2001/REC-SVG-20010904/DTD/svg10.dtd">
<svg version="1.0" xmlns="http://www.w3.org/2000/svg"
 width="500.000000pt" height="500.000000pt" viewBox="0 0 500.000000 500.000000"
 preserveAspectRatio="xMidYMid meet">
<metadata>
Created by potrace 1.11, written by Peter Selinger 2001-2013
</metadata>
<g transform="translate(0.000000,500.000000) scale(0.100000,-0.100000)"
fill="#000000" stroke="none">
<path d="M1251 4956 c-50 -114 -175 -553 -196 -686 -4 -25 -9 -54 -11 -65 -8
-41 -46 -303 -60 -405 -2 -19 -7 -51 -9 -70 -3 -19 -7 -60 -10 -90 -3 -30 -7
-64 -9 -75 -2 -11 -7 -49 -11 -85 -3 -36 -8 -81 -10 -100 -5 -44 -24 -240 -30
-300 -5 -62 -16 -187 -20 -235 -2 -22 -7 -87 -10 -145 -4 -58 -9 -125 -10
-150 -27 -365 -27 -1204 0 -1415 2 -16 6 -57 10 -90 3 -33 7 -71 9 -85 3 -14
7 -45 10 -70 26 -203 103 -466 180 -615 53 -103 151 -205 231 -240 31 -14 84
-28 118 -32 60 -6 62 -5 46 13 -37 43 -123 302 -142 429 -3 17 -7 41 -11 55
-17 79 -43 345 -51 546 -6 130 -6 386 0 504 7 146 17 323 20 370 2 25 7 83 10
130 3 47 8 103 10 125 2 22 7 67 10 100 5 59 31 269 40 333 18 117 54 350 60
387 3 17 13 68 21 115 19 106 49 258 68 342 8 34 17 74 20 88 9 51 68 297 86
363 23 81 77 154 237 314 240 242 537 407 773 430 193 19 343 -6 487 -82 72
-37 162 -118 223 -199 45 -60 120 -206 149 -291 24 -70 67 -250 76 -315 3 -25
8 -52 10 -60 27 -103 27 -689 0 -900 -6 -45 -14 -108 -20 -167 -9 -78 -36
-245 -45 -283 -5 -19 -11 -53 -15 -75 -28 -193 -143 -625 -222 -835 -37 -99
-133 -300 -178 -369 -14 -23 -25 -43 -25 -45 0 -8 -61 -97 -122 -178 -159
-210 -343 -341 -564 -399 -91 -24 -294 -34 -364 -18 -25 6 -54 12 -64 15 -54
11 -166 62 -231 105 -87 58 -153 128 -220 232 -54 84 -81 97 -109 55 -54 -82
-22 -265 69 -403 149 -224 414 -355 725 -358 343 -3 679 124 988 375 87 71
222 204 277 273 22 27 48 59 58 70 38 41 176 254 230 356 69 129 123 258 183
437 39 116 112 379 128 463 29 151 56 304 61 345 3 28 8 61 10 75 3 13 8 53
11 89 2 36 7 74 9 85 23 110 23 720 0 829 -2 12 -7 45 -10 74 -23 219 -97 489
-190 687 -78 169 -203 337 -335 450 -131 112 -335 207 -520 241 -79 14 -102
16 -270 19 -144 3 -191 1 -268 -15 -279 -58 -519 -193 -735 -412 -68 -69 -67
-76 -18 122 17 68 31 137 31 152 0 88 -244 193 -473 204 l-78 3 -18 -43z"/>
</g>
</svg>
