<?xml version="1.0" encoding="UTF-8" standalone="no"?>
<svg width="59px" height="42px" viewBox="0 0 59 42" version="1.1" xmlns="http://www.w3.org/2000/svg" xmlns:xlink="http://www.w3.org/1999/xlink">
    <!-- Generator: Sketch 3.6.1 (26313) - http://www.bohemiancoding.com/sketch -->
    <title>Defty</title>
    <desc>Created with Sketch.</desc>
    <defs></defs>
    <g id="Page-1" stroke="none" stroke-width="1" fill="none" fill-rule="evenodd">
        <g id="deelnemer_homepage_a" transform="translate(-200.000000, -24.000000)" fill="#EA5F5F">
            <g id="header-attendant">
                <g id="logo" transform="translate(200.000000, 24.000000)">
                    <path d="M16.3564356,25.2277228 C17.6355845,22.8293486 18.7128713,18.552599 18.7128713,14.4158416 C18.7128713,8.95988974 16.7976947,3.80380851 10.950495,3.88118812 C8.61829467,3.84377813 6.62331905,5.00289716 5.12871287,6.65346535 C5.14703709,6.28192507 5.54603222,5.12280603 5.54455446,4.71287129 L5.54455446,4.71287129 C5.30663514,3.96368699 3.27176001,3.6039604 2.77227723,3.6039604 C2.5934683,3.6039604 2.35407123,3.6039604 2.35643564,3.74257426 C1.83537757,5.04286679 1.59598049,6.12204658 1.24752475,7.48514851 C0.718191222,10.518705 0,16.4741787 0,21.7623762 C0,24.78786 0.239397074,27.5857336 0.97029703,29.3861386 C1.31668391,30.503516 2.15457367,31.7425743 3.46534653,31.7425743 L3.6039604,31.7425743 C2.67326733,30.2636982 2.39397074,27.3858855 2.35643564,24.5346535 C2.39397074,21.5902903 2.67326733,18.6325383 2.91089109,17.049505 C3.27176001,14.3557887 3.83035318,11.7177937 4.43564356,9.42574257 C5.98492685,7.36110486 8.29909857,5.52250225 10.6732673,5.54455446 L10.6732673,5.54455446 C14.3638244,5.52250225 15.5209103,9.11976823 15.5247525,13.3069307 C15.5209103,17.5933281 14.2441259,22.5495612 13.3069307,24.5346535 C11.9698537,27.2659766 10.3339737,29.3443969 7.34653465,29.3861386 C5.86522831,29.3443969 4.38894636,28.6649134 3.6039604,27.1683168 C3.47125757,26.9462196 3.35155904,26.8662804 3.32673267,26.8910891 C3.11216196,26.8662804 2.95256391,27.1460677 2.91089109,27.5841584 C2.95256391,29.4243362 4.74804197,31.3029084 7.62376238,31.3267327 C11.45116,31.3029084 14.643121,28.4650653 16.3564356,25.2277228 L16.3564356,25.2277228 Z M29.9405941,15.5247525 C29.9405941,14.1507199 29.2248012,12.9522245 27.5841584,12.7524752 L27.1683168,12.7524752 C22.7428989,12.7524752 20.2376238,19.1045008 20.2376238,23.8415842 C20.2376238,27.0944701 21.1920143,31.049505 25.2277228,31.049505 C27.3955527,31.049505 29.0657361,29.8110597 29.6633663,27.7227723 C29.7417627,27.653768 29.7417627,27.5738683 29.8019802,27.5841584 L29.8019802,27.4455446 C29.7019964,27.4939686 29.5826976,27.6138182 29.5247525,27.7227723 C28.7873722,28.6125643 27.6341503,29.3316616 26.4752475,29.3861386 C23.6972894,29.3316616 23.4586918,25.5364261 23.4257426,23.2871287 C25.7253693,22.699987 29.9405941,20.7024947 29.9405941,15.5247525 L29.9405941,15.5247525 Z M27.7227723,16.2178218 C27.7227723,17.1257097 26.95255,21.1330299 23.4257426,22.4554455 C23.5068186,18.568345 24.560807,14 26.4752475,14 C27.4390062,14 27.7227723,15.1621228 27.7227723,16.2178218 L27.7227723,16.2178218 Z M39.3663366,0 L38.3960396,0 C36.2275466,0 34.5893379,0.877470457 33.8217822,3.6039604 C33.1109545,5.74344299 33.1908671,8.61516448 33.1287129,13.3069307 L31.049505,13.3069307 C30.7934886,13.2418269 30.6336634,13.5609071 30.6336634,13.8613861 C30.6336634,14.0794123 30.713576,14.2788374 30.9108911,14.2772277 L33.1287129,14.2772277 L33.1287129,27.5841584 C33.1509108,28.6773299 33.3506924,30.9108911 34.9306931,30.9108911 C35.5482893,30.9108911 36.3074592,30.5918109 36.5940594,30.0792079 C35.8279835,28.876755 35.6681583,24.5691728 35.6237624,20.6534653 C35.6681583,17.8684893 35.7480709,15.2360779 35.7623762,14.2772277 L38.950495,14.2772277 L38.950495,13.3069307 L35.7623762,13.3069307 C35.8279835,8.53539444 36.8268912,1.23643564 39.9207921,1.24752475 C40.5827843,1.23643564 41.2220852,1.63528585 41.4455446,2.07920792 C41.581692,2.19367614 41.6216483,2.23356116 41.7227723,2.21782178 C41.7814735,2.23356116 41.8613861,1.914481 41.8613861,1.66336634 C41.8613861,0.757815394 40.5428279,0.159540083 39.3663366,0 Z M43.2475248,13.3069307 C43.1699275,12.6897582 43.3291013,10.4501217 43.3861386,9.14851485 L43.3861386,8.87128713 C43.3688948,7.57058919 42.9311668,6.93069307 41.8613861,6.93069307 C40.9812876,6.93069307 40.5833531,7.57058919 39.7821782,8.31683168 C40.3843858,8.73040091 40.4639727,10.0901802 40.4752475,11.5049505 C40.4639727,12.1298491 40.4639727,12.7697452 40.4752475,13.3069307 L38.950495,13.3069307 C38.950495,13.3069307 38.950495,14.2772277 38.950495,14.2772277 L40.4752475,14.2772277 C40.3047989,17.5903262 40.1058316,21.0484012 40.0594059,24.3960396 L40.0594059,24.8118812 C40.1058316,27.2873884 40.5435596,31.3267327 43.6633663,31.3267327 C44.3239377,31.3267327 45.1198067,31.1667586 45.4653465,30.7722772 C45.5973282,30.6868366 45.6371216,30.646843 45.6039604,30.6336634 C45.6371216,30.486869 45.5973282,30.4468755 45.4653465,30.4950495 L45.3267327,30.4950495 C44.6024918,30.4468755 44.0453835,29.4470378 43.9405941,29.1089109 C43.2893079,27.807304 43.0505472,25.7276416 42.970297,23.7029703 C42.9709603,23.1680571 42.9311668,22.6481415 42.970297,22.1782178 C42.9311668,19.608635 43.0505472,16.6891089 43.1089109,14.4158416 L46.5742574,14.4158416 C46.8309252,14.3694855 46.990099,14.0495374 46.990099,13.7227723 C46.990099,13.5696153 46.8707187,13.3296543 46.5742574,13.3069307 L43.2475248,13.3069307 Z M58.4950495,13.4455446 C58.4950495,13.2879504 58.3361056,13.1683168 57.9405941,13.1683168 C57.1440264,13.1683168 54.5611881,13.1683168 54.4752475,15.9405941 C54.2830363,19.2297495 53.9254125,22.3800994 52.6732673,25.5049505 C52.2565017,26.5273955 51.739934,27.3249524 51.2871287,27.3069307 C50.9452145,27.3249524 50.6670627,26.8464183 50.4554455,25.5049505 C50.3491749,24.8126481 50.3094389,23.8555797 50.3168317,22.7326733 C50.3094389,19.4690166 50.8260066,15.0235953 51.7029703,13.1683168 C51.5643564,13.1683168 51.5643564,13.1683168 51.2871287,13.1683168 C51.009901,13.1683168 50.4554455,13.1683168 50.4554455,13.1683168 C50.4554455,13.1683168 50.039604,13.1683168 49.6237624,13.3069307 C49.2079208,13.4455446 48.680264,13.6867288 48.2376238,14.8316832 C47.5676568,16.4781781 47.5279208,19.4291388 47.4059406,21.0693069 C47.4484488,21.4230311 47.4087129,21.9015653 47.4059406,22.4554455 C47.4087129,24.9721595 47.6868647,29.3587226 48.6534653,30.2178218 C49.0378878,30.555058 49.3160396,30.6746915 49.6237624,30.6336634 C50.8657426,30.6746915 52.0578218,28.7605549 52.3960396,27.8613861 C53.4883168,25.610205 54.2830363,23.4966791 54.7524752,21.2079208 C54.8393399,22.1408323 54.8790759,23.018145 54.8910891,23.8415842 C54.9585479,24.2942361 54.9585479,24.8525259 54.8910891,25.5049505 C54.9585479,30.555058 54.0048845,41.2423209 48.2376238,41.3069307 L48.0990099,41.3069307 C47.4484488,41.2423209 46.9318812,40.8834203 46.5742574,40.3366337 L46.5742574,40.6138614 C46.5742574,41.5613437 47.6471287,42 48.6534653,42 C53.3293729,42 57.4221782,38.091971 57.3861386,26.8910891 L57.3861386,26.6138614 C57.4221782,25.6500829 57.2632343,23.2175342 57.2475248,20.6534653 C57.2632343,17.5947578 57.4619142,14.3646522 58.3564356,13.5841584 C58.4155776,13.5670953 58.4950495,13.4873396 58.4950495,13.4455446 Z" id="Defty"></path>
                </g>
            </g>
        </g>
    </g>
</svg>